<svg width="64" height="64" viewBox="0 0 64 64" fill="none" xmlns="http://www.w3.org/2000/svg">
	<path d="M54.0009 33.3362C53.9879 38.5099 51.899 43.4905 48.1475 47.2928C44.396 51.0952 39.2551 53.4422 33.7419 53.8697C33.7419 53.8697 19.2041 54.2013 14.3754 53.8287C13.5024 53.7328 12.6716 53.4243 11.9661 52.9339C11.2607 52.4435 10.7053 51.7884 10.3555 51.0343C11.0265 51.3369 11.7494 51.5261 12.4909 51.5932C14.0846 51.7199 16.7618 51.7832 20.5108 51.7832C26.0168 51.7832 32.0009 51.6416 32.0646 51.6416H32.1682C37.6493 51.2179 42.8076 49.0436 46.7773 45.4838C50.747 41.924 53.2863 37.1954 53.969 32.0918C53.9889 32.483 54.0009 32.904 54.0009 33.3362Z" fill="white" />
	<path d="M52.1952 28.8142C52.1842 33.9891 50.0962 38.9716 46.3445 42.7755C42.5928 46.5794 37.4508 48.9275 31.9363 49.3551C31.9363 49.3551 17.4024 49.6979 12.5817 49.3104C9.99203 49.0906 8.05976 46.829 8 44.3326L8.07968 13.0946C8.15139 10.6057 10.0956 8.34783 12.6853 8.15035C17.51 7.77776 32.0438 8.19507 32.0438 8.19507C37.5542 8.64597 42.6828 11.0151 46.4145 14.8334C50.1463 18.6518 52.2093 23.6412 52.1952 28.8142Z" fill="white" />
</svg>
	